<svg width="15" height="15" viewBox="0 0 15 15" fill="none" xmlns="http://www.w3.org/2000/svg">
<path d="M7.75875 3.125H13.125C13.2908 3.125 13.4497 3.19085 13.5669 3.30806C13.6842 3.42527 13.75 3.58424 13.75 3.75V12.5C13.75 12.6658 13.6842 12.8247 13.5669 12.9419C13.4497 13.0592 13.2908 13.125 13.125 13.125H1.875C1.70924 13.125 1.55027 13.0592 1.43306 12.9419C1.31585 12.8247 1.25 12.6658 1.25 12.5V2.5C1.25 2.33424 1.31585 2.17527 1.43306 2.05806C1.55027 1.94085 1.70924 1.875 1.875 1.875H6.50875L7.75875 3.125ZM2.5 3.125V11.875H12.5V4.375H7.24125L5.99125 3.125H2.5ZM6.875 7.5H8.125V10.625H6.875V7.5ZM6.875 5.625H8.125V6.875H6.875V5.625Z" fill="black"/>
</svg>
