<?xml version="1.0" encoding="UTF-8" standalone="no"?>
<!DOCTYPE svg PUBLIC "-//W3C//DTD SVG 1.1//EN" "http://www.w3.org/Graphics/SVG/1.1/DTD/svg11.dtd">
<svg width="100%" height="100%" viewBox="0 0 2269 645" version="1.1" xmlns="http://www.w3.org/2000/svg" xmlns:xlink="http://www.w3.org/1999/xlink" xml:space="preserve" xmlns:serif="http://www.serif.com/" style="fill-rule:evenodd;clip-rule:evenodd;stroke-linecap:round;stroke-linejoin:round;stroke-miterlimit:1.5;">
    <g transform="matrix(1,0,0,1,-753.223,-1512.19)">
        <g transform="matrix(1,0,0,1,133.263,340.475)">
            <path d="M869.96,1594.1L869.96,1519.1L844.96,1519.1L844.96,1369.1L794.96,1369.1L794.96,1444.1L769.96,1444.1L769.96,1469.1L744.96,1469.1L744.96,1444.1L719.96,1444.1L719.96,1369.1L669.96,1369.1L669.96,1519.1L644.96,1519.1L644.96,1594.1L694.96,1594.1L694.96,1519.1L719.96,1519.1L719.96,1544.1L744.96,1544.1L744.96,1569.1L769.96,1569.1L769.96,1544.1L794.96,1544.1L794.96,1519.1L819.96,1519.1L819.96,1594.1L869.96,1594.1ZM619.96,1644.1L619.96,1494.1L644.96,1494.1L644.96,1344.1L744.96,1344.1L744.96,1419.1L769.96,1419.1L769.96,1344.1L869.96,1344.1L869.96,1494.1L894.96,1494.1L894.96,1644.1L794.96,1644.1L794.96,1619.1L719.96,1619.1L719.96,1644.1L619.96,1644.1Z" style="fill:rgb(121,82,161);fill-rule:nonzero;"/>
            <path d="M1177.38,1594.1L1177.38,1519.1L1152.38,1519.1L1152.38,1369.1L1102.38,1369.1L1102.38,1444.1L1077.38,1444.1L1077.38,1469.1L1052.38,1469.1L1052.38,1444.1L1027.38,1444.1L1027.38,1369.1L977.382,1369.1L977.382,1519.1L952.382,1519.1L952.382,1594.1L1002.38,1594.1L1002.38,1519.1L1027.38,1519.1L1027.38,1544.1L1052.38,1544.1L1052.38,1569.1L1077.38,1569.1L1077.38,1544.1L1102.38,1544.1L1102.38,1519.1L1127.38,1519.1L1127.38,1594.1L1177.38,1594.1ZM927.382,1644.1L927.382,1494.1L952.382,1494.1L952.382,1344.1L1052.38,1344.1L1052.38,1419.1L1077.38,1419.1L1077.38,1344.1L1177.38,1344.1L1177.38,1494.1L1202.38,1494.1L1202.38,1644.1L1102.38,1644.1L1102.38,1619.1L1027.38,1619.1L1027.38,1644.1L927.382,1644.1Z" style="fill:rgb(121,82,161);fill-rule:nonzero;"/>
            <path d="M1309.8,1594.1L1309.8,1519.1L1334.8,1519.1L1334.8,1444.1L1359.8,1444.1L1359.8,1369.1L1259.8,1369.1L1259.8,1594.1L1309.8,1594.1ZM1234.8,1644.1L1234.8,1344.1L1384.8,1344.1L1384.8,1494.1L1359.8,1494.1L1359.8,1569.1L1334.8,1569.1L1334.8,1644.1L1234.8,1644.1Z" style="fill:rgb(121,82,161);fill-rule:nonzero;"/>
            <path d="M2041.44,1594.1L2041.44,1569.1L2016.44,1569.1L2016.44,1544.1L1991.44,1544.1L1991.44,1369.1L2041.44,1369.1L2041.44,1519.1L2066.44,1519.1L2066.44,1544.1L2141.44,1544.1L2141.44,1519.1L2166.44,1519.1L2166.44,1394.1L2216.44,1394.1L2216.44,1544.1L2191.44,1544.1L2191.44,1569.1L2166.44,1569.1L2166.44,1594.1L2041.44,1594.1Z" style="fill:rgb(121,82,161);fill-rule:nonzero;"/>
            <path d="M2248.87,1594.1L2248.87,1369.1L2423.87,1369.1L2423.87,1419.1L2298.87,1419.1L2298.87,1469.1L2398.87,1469.1L2398.87,1494.1L2298.87,1494.1L2298.87,1544.1L2423.87,1544.1L2423.87,1594.1L2248.87,1594.1Z" style="fill:rgb(121,82,161);fill-rule:nonzero;"/>
            <path d="M2506.29,1594.1L2506.29,1569.1L2481.29,1569.1L2481.29,1544.1L2456.29,1544.1L2456.29,1519.1L2481.29,1519.1L2481.29,1494.1L2506.29,1494.1L2506.29,1519.1L2531.29,1519.1L2531.29,1544.1L2606.29,1544.1L2606.29,1519.1L2581.29,1519.1L2581.29,1494.1L2531.29,1494.1L2531.29,1469.1L2481.29,1469.1L2481.29,1444.1L2456.29,1444.1L2456.29,1419.1L2481.29,1419.1L2481.29,1394.1L2506.29,1394.1L2506.29,1369.1L2631.29,1369.1L2631.29,1394.1L2656.29,1394.1L2656.29,1419.1L2631.29,1419.1L2631.29,1444.1L2606.29,1444.1L2606.29,1419.1L2531.29,1419.1L2531.29,1444.1L2556.29,1444.1L2556.29,1469.1L2631.29,1469.1L2631.29,1494.1L2656.29,1494.1L2656.29,1569.1L2631.29,1569.1L2631.29,1594.1L2506.29,1594.1Z" style="fill:rgb(121,82,161);fill-rule:nonzero;"/>
            <path d="M2738.71,1594.1L2738.71,1519.1L2763.71,1519.1L2763.71,1419.1L2688.71,1419.1L2688.71,1369.1L2888.71,1369.1L2888.71,1419.1L2813.71,1419.1L2813.71,1594.1L2738.71,1594.1Z" style="fill:rgb(121,82,161);fill-rule:nonzero;"/>
        </g>
        <g id="Boussole" transform="matrix(0.681568,-0.336557,0.336557,0.681568,-38.8567,948.857)">
            <g transform="matrix(1.00599,0,-5.58434e-17,1.00599,-0.405499,-40.5523)">
                <circle cx="1691.28" cy="2132.78" r="298.215" style="fill:none;stroke:rgb(71,190,165);stroke-width:13.62px;"/>
            </g>
            <g transform="matrix(0.922333,-5.17483e-17,0,0.922333,141.075,137.862)">
                <circle cx="1691.28" cy="2132.78" r="298.215" style="fill:none;stroke:rgb(255,211,7);stroke-width:11.89px;"/>
            </g>
            <g transform="matrix(1.32703,0.655284,-0.655284,1.32703,501.028,-1316.67)">
                <path d="M1715.97,1787.16C1721.71,1789.65 1727.73,1791.5 1733.89,1792.65C1722.86,1816.23 1709.97,1843.7 1698.37,1868.48C1704.09,1841.94 1710.41,1812.48 1715.97,1787.16Z" style="fill:none;stroke:rgb(243,146,0);stroke-width:3.7px;"/>
            </g>
            <g transform="matrix(1.32703,0.655284,-0.655284,1.32703,501.028,-1316.67)">
                <path d="M1829.53,1731.95C1852.9,1743.41 1879.65,1756.47 1902.61,1767.34C1878.65,1762.03 1848.83,1755.45 1822.71,1749.59C1825.64,1743.98 1827.93,1738.06 1829.53,1731.95Z" style="fill:none;stroke:rgb(243,146,0);stroke-width:3.7px;"/>
            </g>
            <g transform="matrix(1.32703,0.655284,-0.655284,1.32703,501.028,-1316.67)">
                <path d="M1667.37,1696.09C1642.75,1684.51 1615.9,1671.83 1596.54,1662.85C1619.86,1667.98 1647.47,1673.97 1672.27,1679.39C1670.06,1684.77 1668.42,1690.36 1667.37,1696.09Z" style="fill:none;stroke:rgb(50,169,224);stroke-width:3.7px;"/>
            </g>
            <g transform="matrix(1.32703,0.655284,-0.655284,1.32703,501.028,-1316.67)">
                <path d="M1768.81,1630.24C1778.71,1609.04 1790.53,1584.47 1803.11,1559.39C1798.24,1580.93 1791.85,1610.07 1786.07,1636.53C1780.57,1633.81 1774.78,1631.69 1768.81,1630.24L1768.81,1630.24Z" style="fill:none;stroke:rgb(50,169,224);stroke-width:3.7px;"/>
            </g>
            <g transform="matrix(1,0,-1.11022e-16,1,-210,68)">
                <path d="M1908,1597C1925.23,1752.96 1951.46,1977.69 1951,1996C1965.03,1993.79 2153.03,2010.85 2355,2039C2216.25,2053.54 1964.66,2082.76 1955,2083C1955.81,2093.61 1924.55,2382.12 1906,2542C1889.56,2391.24 1863.6,2091.86 1866,2083C1859.12,2083.01 1640.8,2058.41 1467,2039C1634.86,2019.74 1844.84,1995.16 1865,1997C1863.76,1978.96 1893.75,1729.02 1908,1597Z" style="fill:rgb(152,13,255);"/>
            </g>
        </g>
    </g>
</svg>
