<?xml version="1.0" encoding="UTF-8" standalone="no"?>
<!DOCTYPE svg PUBLIC "-//W3C//DTD SVG 1.1//EN" "http://www.w3.org/Graphics/SVG/1.1/DTD/svg11.dtd">
<svg width="100%" height="100%" viewBox="0 0 2269 645" version="1.1" xmlns="http://www.w3.org/2000/svg" xmlns:xlink="http://www.w3.org/1999/xlink" xml:space="preserve" xmlns:serif="http://www.serif.com/" style="fill-rule:evenodd;clip-rule:evenodd;stroke-linecap:round;stroke-linejoin:round;stroke-miterlimit:1.5;">
    <g transform="matrix(1,0,0,1,-753.223,-1512.19)">
        <g transform="matrix(1,0,0,1,133.263,340.475)">
            <text x="619.96px" y="1594.1px" style="font-family:'Mario-Kart-DS', 'Mario Kart DS';font-size:400px;fill:rgb(121,82,161);">MMI          uest</text>
        </g>
        <g id="Boussole" transform="matrix(0.681568,-0.336557,0.336557,0.681568,-38.8567,948.857)">
            <g transform="matrix(1.00599,0,-5.58434e-17,1.00599,-0.405499,-40.5523)">
                <circle cx="1691.28" cy="2132.78" r="298.215" style="fill:none;stroke:rgb(71,190,165);stroke-width:13.62px;"/>
            </g>
            <g transform="matrix(0.922333,-5.17483e-17,0,0.922333,141.075,137.862)">
                <circle cx="1691.28" cy="2132.78" r="298.215" style="fill:none;stroke:rgb(255,211,7);stroke-width:11.89px;"/>
            </g>
            <g transform="matrix(1.32703,0.655284,-0.655284,1.32703,501.028,-1316.67)">
                <path d="M1715.97,1787.16C1721.71,1789.65 1727.73,1791.5 1733.89,1792.65C1722.86,1816.23 1709.97,1843.7 1698.37,1868.48C1704.09,1841.94 1710.41,1812.48 1715.97,1787.16Z" style="fill:none;stroke:rgb(243,146,0);stroke-width:3.7px;"/>
            </g>
            <g transform="matrix(1.32703,0.655284,-0.655284,1.32703,501.028,-1316.67)">
                <path d="M1829.53,1731.95C1852.9,1743.41 1879.65,1756.47 1902.61,1767.34C1878.65,1762.03 1848.83,1755.45 1822.71,1749.59C1825.64,1743.98 1827.93,1738.06 1829.53,1731.95Z" style="fill:none;stroke:rgb(243,146,0);stroke-width:3.7px;"/>
            </g>
            <g transform="matrix(1.32703,0.655284,-0.655284,1.32703,501.028,-1316.67)">
                <path d="M1667.37,1696.09C1642.75,1684.51 1615.9,1671.83 1596.54,1662.85C1619.86,1667.98 1647.47,1673.97 1672.27,1679.39C1670.06,1684.77 1668.42,1690.36 1667.37,1696.09Z" style="fill:none;stroke:rgb(50,169,224);stroke-width:3.7px;"/>
            </g>
            <g transform="matrix(1.32703,0.655284,-0.655284,1.32703,501.028,-1316.67)">
                <path d="M1768.81,1630.24C1778.71,1609.04 1790.53,1584.47 1803.11,1559.39C1798.24,1580.93 1791.85,1610.07 1786.07,1636.53C1780.57,1633.81 1774.78,1631.69 1768.81,1630.24L1768.81,1630.24Z" style="fill:none;stroke:rgb(50,169,224);stroke-width:3.7px;"/>
            </g>
            <g transform="matrix(1,0,-1.11022e-16,1,-210,68)">
                <path d="M1908,1597C1925.23,1752.96 1951.46,1977.69 1951,1996C1965.03,1993.79 2153.03,2010.85 2355,2039C2216.25,2053.54 1964.66,2082.76 1955,2083C1955.81,2093.61 1924.55,2382.12 1906,2542C1889.56,2391.24 1863.6,2091.86 1866,2083C1859.12,2083.01 1640.8,2058.41 1467,2039C1634.86,2019.74 1844.84,1995.16 1865,1997C1863.76,1978.96 1893.75,1729.02 1908,1597Z" style="fill:rgb(152,13,255);"/>
            </g>
        </g>
    </g>
</svg>
