<?xml version="1.0" encoding="UTF-8"?>
<svg id="Calque_1" data-name="Calque 1" xmlns="http://www.w3.org/2000/svg" viewBox="0 0 247.48 248.42">
  <defs>
    <style>
      .cls-1 {
        fill: #b3b3b3;
      }
    </style>
  </defs>
  <path class="cls-1" d="M151.46,204.61s-.1,0-.15-.02c-1.27-.39-2.36-.98-3.14-1.7-.96-.88-1.73-1.9-2.29-3.01-.12-.25-.02-.55,.22-.67,.25-.12,.55-.02,.67,.22,.51,1.01,1.2,1.92,2.08,2.72,.67,.62,1.63,1.13,2.76,1.48,.26,.08,.41,.36,.33,.62-.07,.21-.26,.35-.48,.35Zm6.88-.05c-.2,0-.39-.12-.47-.32-.1-.26,.03-.55,.28-.65,.33-.13,.62-.28,.89-.44,1.76-1.13,2.9-2.5,3.5-4.2,.09-.26,.38-.4,.64-.31,.26,.09,.4,.38,.31,.64-.67,1.92-1.95,3.46-3.9,4.71-.32,.2-.68,.38-1.06,.53-.06,.02-.12,.03-.18,.03Zm-12.86-11.23s-.06,0-.08,0c-.27-.05-.46-.31-.41-.58,.35-2.01,1.13-4.19,2.34-6.47,.03-.25,.22-.48,.48-.43,0,0,.08,0,.09,0,.17,.02,.31,.11,.39,.26s.08,.33,0,.47c-1.2,2.25-1.98,4.38-2.32,6.33-.04,.24-.25,.42-.49,.42Zm17.73-.64c-.24,0-.45-.17-.49-.41-.31-1.7-.82-3.6-1.57-5.81-.05-.15-.03-.32,.07-.45,.09-.13,.25-.21,.41-.21h.9c.28,0,.5,.22,.5,.5s-.22,.5-.5,.5h-.2c.65,1.98,1.1,3.72,1.39,5.3,.05,.27-.13,.53-.4,.58-.03,0-.06,0-.09,0Zm21.86-5.88h-1.55c-.28,0-.5-.22-.5-.5s.22-.5,.5-.5h1.05v-4.95c0-.28,.22-.5,.5-.5s.5,.22,.5,.5v5.45c0,.28-.22,.5-.5,.5Zm-8.55,0h-7c-.28,0-.5-.22-.5-.5s.22-.5,.5-.5h7c.28,0,.5,.22,.5,.5s-.22,.5-.5,.5Zm-103.12-.08c-1.28,0-2.59-.03-3.91-.09-.28-.01-.49-.25-.48-.52,.01-.28,.25-.51,.52-.48,2.39,.11,4.79,.12,6.95,.03,.27,0,.51,.2,.52,.48,.01,.28-.2,.51-.48,.52-1.01,.04-2.05,.06-3.13,.06Zm46.39-.1c-.28,0-.5-.22-.5-.5,0-.28,.22-.5,.5-.5,2.21,0,4.41-.03,6.6-.06h.39s0,0,0,0c.27,0,.5,.22,.5,.5,0,.28-.22,.5-.49,.5h-.39c-2.2,.03-4.4,.05-6.61,.06h0Zm-7-.03h0c-2.51-.04-4.8-.12-7.01-.23-.28-.01-.49-.25-.47-.52,.01-.28,.25-.5,.52-.47,2.2,.11,4.48,.19,6.98,.23,.28,0,.5,.23,.49,.51,0,.27-.23,.49-.5,.49Zm28-.02h-.01c-2.02-.04-4.04-.06-6.06-.06h-.93s0,0,0,0c-.28,0-.5-.22-.5-.5,0-.28,.22-.5,.5-.5h.93c2.03,0,4.05,.01,6.08,.06,.28,0,.5,.23,.49,.51,0,.27-.23,.49-.5,.49Zm-78.25-.53s-.04,0-.06,0l-.89-.12c-.25-.03-.43-.25-.43-.5v-6.1c0-.28,.22-.5,.5-.5s.5,.22,.5,.5v5.66l.45,.06c.27,.03,.47,.28,.43,.56-.03,.25-.25,.44-.5,.44Zm20.92-.17c-.23,0-.44-.16-.49-.39-.06-.27,.11-.54,.38-.6,.85-.19,1.56-.4,2.13-.63-.5-1.23-.89-2.43-1.18-3.59-.07-.27,.1-.54,.37-.61,.27-.06,.54,.1,.6,.37,.31,1.25,.75,2.56,1.31,3.89,.1,.24,0,.52-.23,.64-.69,.35-1.63,.66-2.79,.91-.04,0-.07,.01-.11,.01Zm15.86-.29c-.08,0-.16-.02-.23-.06-.24-.13-.34-.43-.21-.68,1.28-2.42,2.08-4.5,2.44-6.37,.05-.27,.32-.45,.59-.4,.27,.05,.45,.31,.4,.58-.38,1.97-1.21,4.15-2.54,6.66-.09,.17-.26,.27-.44,.27Zm85.74-11.22c-.28,0-.5-.22-.5-.5v-7c0-.28,.22-.5,.5-.5s.5,.22,.5,.5v7c0,.28-.22,.5-.5,.5Zm-100.51-.25s-.08,0-.12-.01c-.27-.06-.43-.33-.37-.6,.63-2.58,2.18-4.52,4.48-5.62,.25-.12,.55-.01,.67,.24,.12,.25,.01,.55-.24,.67-2.05,.97-3.37,2.64-3.93,4.95-.06,.23-.26,.38-.49,.38Zm-22.9-1.29c-.28,0-.5-.22-.5-.5v-7c0-.28,.22-.5,.5-.5s.5,.22,.5,.5v7c0,.28-.22,.5-.5,.5Zm39.18-.53c-.17,0-.34-.09-.43-.25-.91-1.53-2.34-2.88-4.38-4.1-.15-.02-.31-.03-.46-.05-.27-.03-.48-.27-.45-.54,.03-.28,.27-.47,.54-.45,.19,.02,.39,.04,.59,.06,.07,0,.13,.03,.19,.07,2.24,1.33,3.81,2.8,4.82,4.5,.14,.24,.06,.54-.18,.68-.08,.05-.17,.07-.25,.07Zm-48.86-7.42c-.28,0-.56-.01-.82-.04-.28-.03-.48-.27-.45-.54,.02-.28,.27-.47,.54-.45,1.6,.15,3.64-.19,6.68-1.09,.27-.08,.54,.07,.62,.34,.08,.26-.07,.54-.34,.62-2.73,.8-4.65,1.16-6.24,1.16Zm124.46-.94c-.43,0-.85-.01-1.27-.04-.28-.02-.48-.26-.47-.53,.02-.28,.27-.49,.53-.47,1.9,.13,3.86-.08,5.97-.3l.92-.1c.29-.03,.52,.17,.55,.45,.03,.28-.17,.52-.45,.55l-.92,.1c-1.69,.18-3.29,.35-4.87,.35Zm-7.43-2.87c-.13,0-.27-.05-.37-.16-1.68-1.81-2.68-4.24-2.68-6.5v-.2c0-.28,.24-.49,.51-.49,.28,0,.49,.24,.49,.51v.18c0,2.01,.9,4.18,2.41,5.82,.19,.2,.18,.52-.03,.71-.1,.09-.22,.13-.34,.13Zm-123.39,0c-.16,0-.31-.07-.41-.21l-.2-.28c-1.45-2.05-2.15-3.94-2.15-5.78,0-.25,.01-.5,.04-.76,.03-.27,.27-.48,.55-.44,.27,.03,.47,.28,.44,.55-.02,.22-.03,.43-.03,.65,0,1.63,.64,3.33,1.97,5.21l.19,.27c.16,.22,.11,.54-.11,.7-.09,.06-.19,.09-.29,.09Zm139.3-12.08c-.05,0-.1,0-.15-.02-.79-.25-1.49-.44-2.11-.6l.07-.5,.13-.48-.13,.48,.19-.47c.47,.13,.99,.27,1.56,.44,.13-1.33,.24-2.7,.33-4.08,.02-.28,.24-.49,.53-.47,.28,.02,.48,.26,.47,.53-.1,1.61-.24,3.2-.39,4.72-.02,.15-.1,.29-.22,.37-.08,.05-.18,.08-.27,.08Zm-15.16-.19c-.14,0-.28-.06-.38-.18-.18-.21-.15-.53,.06-.7,2.03-1.72,4.4-2.66,6.66-2.66,.28,0,.51,.22,.51,.5s-.21,.5-.49,.5c-2.03,0-4.22,.88-6.05,2.43-.09,.08-.21,.12-.32,.12Zm-108.15-.04c-.07,0-.14-.01-.21-.04-.56-.25-1.11-.49-1.64-.7-.26-.1-.38-.39-.28-.65,.1-.26,.4-.38,.65-.28,.33,.13,.67,.27,1.02,.42,.08-1.43,.15-2.93,.2-4.46,0-.28,.23-.48,.52-.48,.28,0,.49,.24,.48,.52-.06,1.8-.14,3.55-.24,5.21-.01,.16-.1,.31-.24,.4-.08,.05-.17,.07-.26,.07Zm-14.85-.14c-.13,0-.27-.05-.37-.16-.19-.2-.17-.52,.03-.71,1.85-1.71,4.06-2.48,6.79-2.37,.28,.01,.49,.25,.48,.52-.01,.28-.23,.49-.52,.48-2.45-.11-4.42,.59-6.07,2.11-.1,.09-.22,.13-.34,.13Zm138.86-11.32h-.01c-.28,0-.49-.24-.49-.51,.05-1.97,.07-4.07,.07-6.4v-.58c0-.28,.22-.5,.5-.5h0c.28,0,.5,.22,.5,.5v.58c0,2.35-.02,4.45-.07,6.43,0,.27-.23,.49-.5,.49Zm-123.66-.73h0c-.28,0-.5-.22-.5-.5v-.69c0-2.1-.02-4.2-.04-6.3,0-.28,.22-.5,.49-.51,.26,0,.5,.22,.51,.49,.02,2.1,.04,4.21,.04,6.31v.69c0,.28-.22,.5-.5,.5Zm123.67-13.27c-.27,0-.5-.22-.5-.49v-.95c-.04-2.02-.06-4.04-.07-6.05,0-.28,.22-.5,.5-.5h0c.27,0,.5,.22,.5,.5,.01,2.02,.04,4.03,.06,6.05v.95c.01,.28-.21,.5-.48,.51h0Zm-123.8-.72c-.27,0-.5-.22-.5-.5-.01-1.42-.02-2.84-.02-4.26,0-.92,0-1.83,.01-2.75,0-.27,.23-.5,.5-.5h0c.28,0,.5,.23,.5,.5,0,.91-.01,1.83-.01,2.74,0,1.42,0,2.83,.02,4.25,0,.28-.22,.5-.5,.5h0Zm123.75-13.27h0c-.28,0-.5-.23-.49-.51,.04-2.52,.11-4.82,.23-7.01,.01-.28,.25-.51,.53-.47,.28,.01,.49,.25,.47,.53-.11,2.19-.19,4.47-.23,6.98,0,.27-.23,.49-.5,.49Zm-123.58-.72h-.02c-.28-.01-.49-.25-.48-.52,.11-2.49,.27-4.78,.48-7.01,.03-.27,.26-.47,.54-.45,.27,.03,.48,.27,.45,.54-.21,2.21-.36,4.49-.47,6.96-.01,.27-.23,.48-.5,.48Zm132.8-5.48c-1.2,0-2.54-.19-3.97-.56-.27-.07-.43-.34-.36-.61,.07-.27,.34-.43,.61-.36,2.61,.68,4.8,.7,6.61,.07,.26-.09,.55,.05,.64,.31,.09,.26-.05,.55-.31,.64-.98,.34-2.06,.52-3.22,.52Zm-122.76-.15c-1.04,0-2.13-.15-3.53-.48-.27-.06-.44-.33-.37-.6,.06-.27,.33-.44,.6-.37,1.32,.31,2.34,.45,3.3,.45h.17c1.09-.02,2.13-.23,3.09-.63,.25-.11,.55,.02,.65,.27s-.02,.55-.27,.65c-1.08,.45-2.24,.68-3.46,.71h-.19Zm130.95-4.9c-.09,0-.17-.02-.25-.07-.24-.14-.32-.45-.18-.68,.73-1.23,1.08-2.42,1.08-3.64,0-.86-.17-1.72-.53-2.63-.1-.26,.03-.55,.28-.65,.26-.1,.55,.03,.65,.28,.4,1.01,.6,2.02,.6,3,0,1.4-.4,2.76-1.22,4.15-.09,.16-.26,.25-.43,.25Zm-122.77-.68c-.06,0-.12-.01-.19-.04-.26-.1-.38-.39-.28-.65,.06-.15,.12-.31,.17-.47,.31-.92,.47-1.82,.47-2.68,0-1.13-.27-2.2-.82-3.19-.13-.24-.04-.55,.2-.68,.24-.13,.55-.04,.68,.2,.62,1.14,.94,2.37,.94,3.67,0,.97-.18,1.98-.53,3-.06,.17-.12,.35-.19,.52-.08,.2-.27,.31-.46,.31Zm105.63-10.51c-.1,0-.2-.03-.29-.09-.13-.09-.21-.25-.21-.41v-6.83c0-.28,.22-.5,.5-.5s.5,.22,.5,.5v6.41c.06,.05,.11,.12,.13,.21,.09,.26-.05,.54-.32,.63l-.15,.05c-.05,.02-.11,.03-.16,.03Zm-123.42-.47c-.28,0-.5-.22-.5-.5v-7c0-.28,.22-.5,.5-.5s.5,.22,.5,.5v7c0,.28-.22,.5-.5,.5Zm12.39-.29c-.07,0-.15-.02-.22-.05-1.15-.56-2.46-1.06-3.91-1.49l-2.29,.76c-.26,.09-.55-.05-.63-.32-.09-.26,.06-.54,.32-.63l2.44-.81c.1-.03,.2-.03,.3,0,1.56,.45,2.98,.98,4.22,1.59,.25,.12,.35,.42,.23,.67-.09,.18-.26,.28-.45,.28Zm124.63-.33c-.1,0-.21-.03-.3-.1-1.59-1.17-3.34-1.39-6.33-.8-.27,.05-.53-.12-.59-.4-.05-.27,.12-.53,.4-.59,3.28-.64,5.29-.35,7.11,.98,.22,.16,.27,.48,.11,.7-.1,.13-.25,.2-.4,.2Zm-45.77-4.15c-.77,0-1.58-.05-2.42-.15-.07,0-.14-.03-.2-.07-.95-.56-1.8-1.17-2.52-1.8-.21-.18-.23-.5-.05-.71,.18-.21,.5-.23,.71-.05,.65,.57,1.42,1.12,2.28,1.64,1.35,.16,2.61,.17,3.76,.05,.28-.03,.52,.17,.55,.44,.03,.27-.17,.52-.44,.55-.53,.06-1.1,.09-1.67,.09Zm7.73-3.08c-.11,0-.22-.04-.31-.11-.22-.17-.25-.49-.08-.7,1.15-1.43,1.74-3.33,1.74-5.64,0-.21,0-.41-.01-.62-.01-.28,.2-.51,.48-.52,.27-.04,.51,.2,.52,.48,.01,.23,.02,.45,.02,.67,0,2.54-.66,4.65-1.96,6.26-.1,.12-.24,.19-.39,.19Zm-15.87-4.78c-.25,0-.47-.19-.5-.44-.04-.38-.07-.78-.07-1.18,0-1.77,.43-3.7,1.3-5.89,.1-.26,.39-.38,.65-.28,.26,.1,.38,.39,.28,.65-.83,2.07-1.23,3.88-1.23,5.52,0,.36,.02,.71,.06,1.06,.03,.27-.17,.52-.44,.55-.02,0-.04,0-.06,0Zm40.31-.74c-.28,0-.5-.22-.5-.5v-7c0-.28,.22-.5,.5-.5s.5,.22,.5,.5v7c0,.28-.22,.5-.5,.5Zm-123.42-.63c-.28,0-.5-.22-.5-.5v-7c0-.28,.22-.5,.5-.5s.5,.22,.5,.5v7c0,.28-.22,.5-.5,.5Zm99.23-7.24c-.2,0-.39-.12-.47-.32-.09-.24-.19-.47-.29-.71-.1-.24,0-.52,.23-.64,1.28-.65,3.42-1.14,6.21-1.44,.29-.03,.52,.17,.55,.44,.03,.27-.17,.52-.44,.55-2.37,.25-4.23,.65-5.44,1.15,.04,.09,.08,.19,.11,.28,.1,.26-.03,.55-.28,.65-.06,.02-.12,.04-.18,.04Zm-16.34-1.87h-.02l-6.99-.3c-.28-.01-.49-.25-.48-.52,.01-.28,.26-.47,.52-.48l6.99,.3c.28,.01,.49,.25,.48,.52-.01,.27-.23,.48-.5,.48Zm36.07-.26s-.03,0-.04,0c-2.35-.19-4.69-.3-6.95-.3-.28,0-.5-.23-.5-.5,0-.28,.22-.5,.5-.5h0c2.29,0,4.66,.11,7.03,.31,.27,.02,.48,.26,.46,.54-.02,.26-.24,.46-.5,.46Zm-50.05-.35h-.02l-6.99-.3c-.1,0-.2-.04-.27-.1-.08,.06-.18,.09-.29,.09h-7c-.28,0-.5-.22-.5-.5s.22-.5,.5-.5h7c.11,0,.21,.04,.3,.1,.09-.06,.2-.09,.31-.09l6.99,.3c.28,.01,.49,.25,.48,.52-.01,.27-.23,.48-.5,.48Zm-45.45-.05h-5.21c-.28,0-.5-.22-.5-.5s.22-.5,.5-.5h4.52c-.12-.36-.23-.71-.34-1.04-.08-.26,.06-.54,.32-.63,.26-.09,.54,.06,.63,.32,.17,.54,.36,1.1,.56,1.69,.05,.15,.03,.32-.07,.45-.09,.13-.25,.21-.41,.21Zm-12.21,0h-7c-.28,0-.5-.22-.5-.5s.22-.5,.5-.5h7c.28,0,.5,.22,.5,.5s-.22,.5-.5,.5Zm36.08-.26h-7c-.28,0-.5-.22-.5-.5s.22-.5,.5-.5h7c.28,0,.5,.22,.5,.5s-.22,.5-.5,.5Zm-8.36-3.67c-.05,0-.11,0-.16-.03-.26-.09-.4-.37-.31-.63,.55-1.64,.84-3.2,.84-4.65,0-.68-.06-1.35-.19-1.98-.05-.27,.12-.53,.4-.59,.27-.05,.53,.12,.59,.4,.14,.7,.2,1.43,.2,2.17,0,1.56-.3,3.23-.89,4.97-.07,.21-.27,.34-.47,.34Zm-17.7-4.56c-.25,0-.47-.19-.5-.45-.04-.43-.06-.85-.06-1.24,0-2.27,.71-3.99,2.32-5.55,.2-.19,.52-.19,.71,0,.19,.2,.19,.51,0,.71-1.41,1.38-2.02,2.83-2.02,4.84,0,.36,.02,.74,.06,1.14,.03,.27-.17,.52-.45,.55-.02,0-.03,0-.05,0Zm14.78-8.16c-.11,0-.21-.03-.3-.1-1.72-1.31-4-1.84-6.24-1.45-.27,.04-.53-.14-.58-.41s.14-.53,.41-.58c2.51-.43,5.08,.16,7.02,1.64,.22,.17,.26,.48,.09,.7-.1,.13-.25,.2-.4,.2Z"/>
  <path class="cls-1" d="M10.55,248.42c-.28,0-.5-.22-.5-.5,0-.28,.22-.5,.5-.5h7s0-.01,0-.01c.28,0,.5,.22,.5,.5,0,.28-.22,.5-.5,.5h-7s0,.01,0,.01Zm14-.02c-.28,0-.5-.22-.5-.5,0-.28,.22-.5,.5-.5h7s0,0,0,0c.28,0,.5,.22,.5,.5,0,.28-.22,.5-.5,.5h-7s0,0,0,0Zm14-.01c-.28,0-.5-.22-.5-.5s.22-.5,.5-.5h7c.28,0,.5,.22,.5,.5s-.22,.5-.5,.5h-7s0,0,0,0Zm77,0h-7c-.28,0-.5-.22-.5-.5s.22-.5,.5-.5h7c.28,0,.5,.22,.5,.5s-.22,.5-.5,.5Zm112,0h-7c-.28,0-.5-.22-.5-.5s.22-.5,.5-.5h7c.28,0,.5,.22,.5,.5s-.22,.5-.5,.5Zm-14,0h-7c-.28,0-.5-.22-.5-.5s.22-.5,.5-.5h7c.28,0,.5,.22,.5,.5s-.22,.5-.5,.5Zm-14,0h-7c-.28,0-.5-.22-.5-.5s.22-.5,.5-.5h7c.28,0,.5,.22,.5,.5s-.22,.5-.5,.5Zm-14,0h-7c-.28,0-.5-.22-.5-.5s.22-.5,.5-.5h7c.28,0,.5,.22,.5,.5s-.22,.5-.5,.5Zm-14,0h-7c-.28,0-.5-.22-.5-.5s.22-.5,.5-.5h7c.28,0,.5,.22,.5,.5s-.22,.5-.5,.5Zm-14,0h-7c-.28,0-.5-.22-.5-.5s.22-.5,.5-.5h7c.28,0,.5,.22,.5,.5s-.22,.5-.5,.5Zm-14,0h-7c-.28,0-.5-.22-.5-.5s.22-.5,.5-.5h7c.28,0,.5,.22,.5,.5s-.22,.5-.5,.5Zm-14,0h-7c-.28,0-.5-.22-.5-.5s.22-.5,.5-.5h7c.28,0,.5,.22,.5,.5s-.22,.5-.5,.5Zm112,0h-7c-.28,0-.5-.22-.5-.5s.22-.5,.5-.5h7c.28,0,.5,.22,.5,.5s-.22,.5-.5,.5Zm-140,0h-7c-.28,0-.5-.22-.5-.5s.22-.5,.5-.5h7c.28,0,.5,.22,.5,.5s-.22,.5-.5,.5Zm-14,0h-7c-.28,0-.5-.22-.5-.5s.22-.5,.5-.5h7c.28,0,.5,.22,.5,.5s-.22,.5-.5,.5Zm-35,0c-.28,0-.5-.22-.5-.5s.22-.5,.5-.5h7c.28,0,.5,.22,.5,.5s-.22,.5-.5,.5h-7Zm21,0h-7c-.28,0-.5-.22-.5-.5s.22-.5,.5-.5h7c.28,0,.5,.22,.5,.5s-.22,.5-.5,.5Zm-69.99-.06s-.05,0-.07,0c-2.47-.36-3.48-1.81-3.48-5v-.87c0-.28,.23-.5,.5-.5h0c.28,0,.5,.23,.5,.5v.81c0,3.09,.96,3.83,2.62,4.07,.27,.04,.46,.29,.42,.57-.04,.25-.25,.43-.49,.43Zm243.31-2.66s-.02,0-.04,0c-.28-.02-.48-.26-.46-.54,.05-.66,.05-1.5,.05-2.53v-4.43c0-.28,.22-.5,.5-.5s.5,.22,.5,.5v4.43c0,1.05,0,1.92-.05,2.61-.02,.26-.24,.46-.5,.46ZM.53,235.94h0c-.28,0-.5-.23-.5-.5l.02-7c0-.28,.22-.5,.5-.5h0c.28,0,.5,.23,.5,.5l-.02,7c0,.28-.22,.5-.5,.5Zm246.39-4.28c-.28,0-.5-.22-.5-.5v-7c0-.28,.22-.5,.5-.5s.5,.22,.5,.5v7c0,.28-.22,.5-.5,.5ZM.57,221.93h0c-.28,0-.5-.21-.5-.49v-7c.01-.28,.24-.5,.51-.5h0c.28,0,.5,.22,.5,.5v6.97c-.01,.28-.24,.51-.51,.51Zm246.35-4.26c-.28,0-.5-.22-.5-.5v-7c0-.28,.22-.5,.5-.5s.5,.22,.5,.5v7c0,.28-.22,.5-.5,.5ZM.59,207.93h0c-.28,0-.5-.22-.5-.49v-7c0-.28,.23-.5,.51-.5h0c.28,0,.5,.22,.5,.5v6.98c0,.28-.23,.51-.51,.51Zm246.32-4.27c-.28,0-.5-.22-.5-.5v-7c0-.28,.22-.5,.5-.5s.5,.22,.5,.5v7c0,.28-.22,.5-.5,.5ZM.61,193.94h0c-.28,0-.5-.22-.5-.5v-7c0-.28,.23-.5,.5-.5H.61c.28,0,.5,.22,.5,.5v7c0,.28-.23,.5-.5,.5Zm246.31-4.28c-.28,0-.5-.22-.5-.5v-7c0-.28,.22-.5,.5-.5s.5,.22,.5,.5v7c0,.28-.22,.5-.5,.5ZM.61,179.94c-.28,0-.5-.22-.5-.5v-7c0-.28,.22-.5,.5-.5s.5,.22,.5,.5v7c0,.28-.22,.5-.5,.5Zm246.3-4.28c-.28,0-.5-.22-.5-.5v-7c0-.28,.22-.5,.5-.5s.5,.22,.5,.5v7c0,.28-.22,.5-.5,.5ZM.61,165.94c-.28,0-.5-.22-.5-.5v-7c0-.28,.22-.5,.5-.5s.5,.22,.5,.5v7c0,.28-.22,.5-.5,.5Zm246.3-4.28c-.28,0-.5-.22-.5-.5v-7c0-.28,.22-.5,.5-.5h0c.28,0,.5,.22,.5,.5v7c0,.28-.22,.5-.5,.5ZM.61,151.94c-.28,0-.5-.22-.5-.5v-7c0-.28,.22-.5,.5-.5s.5,.22,.5,.5v7c0,.28-.22,.5-.5,.5Zm246.31-4.28c-.28,0-.5-.22-.5-.5v-7c0-.28,.22-.5,.5-.5h0c.28,0,.5,.22,.5,.5v7c0,.28-.22,.5-.5,.5ZM.6,137.94c-.28,0-.5-.22-.5-.5v-7c0-.28,.22-.5,.5-.5s.5,.22,.5,.5v7c0,.28-.22,.5-.5,.5Zm246.31-4.28c-.28,0-.5-.22-.5-.5v-7c0-.28,.22-.5,.5-.5s.5,.22,.5,.5v7c0,.28-.22,.5-.5,.5ZM.6,123.94c-.28,0-.5-.22-.5-.5v-7c0-.28,.22-.5,.5-.5s.5,.22,.5,.5v7c0,.28-.22,.5-.5,.5Zm246.32-4.28c-.28,0-.5-.22-.5-.5v-7c0-.28,.22-.5,.5-.5s.5,.22,.5,.5v7c0,.28-.22,.5-.5,.5ZM.6,109.94c-.28,0-.5-.22-.5-.5v-7c0-.28,.22-.5,.5-.5s.5,.22,.5,.5v7c0,.28-.22,.5-.5,.5Zm246.31-4.28c-.28,0-.5-.22-.5-.5v-7c0-.28,.22-.5,.5-.5s.5,.22,.5,.5v7c0,.28-.22,.5-.5,.5ZM.6,95.94H.6c-.28,0-.5-.22-.5-.5v-7c0-.28,.22-.5,.5-.5s.5,.22,.5,.5v7c0,.28-.22,.5-.5,.5Zm246.31-4.28c-.28,0-.5-.22-.5-.5v-7c0-.28,.22-.5,.5-.5s.5,.22,.5,.5v7c0,.28-.22,.5-.5,.5ZM.6,81.94c-.28,0-.5-.22-.5-.5v-7c0-.28,.22-.5,.5-.5s.5,.22,.5,.5v7c0,.28-.22,.5-.5,.5Zm246.31-4.28c-.28,0-.5-.22-.5-.5v-7c0-.28,.22-.5,.5-.5h0c.28,0,.5,.22,.5,.5v7c0,.28-.22,.5-.5,.5ZM.6,67.94c-.28,0-.5-.22-.5-.5v-7c0-.28,.22-.5,.5-.5s.5,.22,.5,.5v7c0,.28-.22,.5-.5,.5Zm246.31-4.28h0c-.28,0-.5-.22-.5-.5v-6.99c0-.28,.23-.5,.5-.5h0c.28,0,.5,.22,.5,.5v7c0,.28-.23,.5-.5,.5ZM.6,53.94c-.28,0-.5-.22-.5-.5v-7c0-.28,.22-.5,.5-.5s.5,.22,.5,.5v7c0,.28-.22,.5-.5,.5Zm246.32-4.28h0c-.28,0-.5-.22-.5-.5v-6.99c0-.28,.23-.51,.51-.51h0c.28,0,.5,.22,.5,.49v7c0,.28-.23,.5-.51,.5ZM.6,39.94c-.28,0-.5-.22-.5-.5v-7c0-.28,.22-.5,.5-.5s.5,.22,.5,.5v7c0,.28-.22,.5-.5,.5Zm246.33-4.28h0c-.28,0-.5-.22-.5-.5v-7c0-.28,.23-.5,.51-.5h0c.28,0,.5,.22,.5,.5v7c0,.28-.23,.5-.51,.5ZM.6,25.94c-.28,0-.5-.22-.5-.5v-7c0-.28,.22-.5,.5-.5s.5,.22,.5,.5v7c0,.28-.22,.5-.5,.5Zm246.35-4.28h0c-.28,0-.5-.22-.5-.5v-7c.01-.28,.24-.5,.51-.5h0c.28,0,.5,.22,.5,.5v7c-.01,.28-.24,.5-.51,.5ZM.6,11.94c-.28,0-.5-.22-.5-.5V5.84c0-.52,0-.98,0-1.4,0-.28,.19-.52,.51-.49,.28,0,.5,.23,.49,.51,0,.42,0,.88,0,1.39v5.61c0,.28-.22,.5-.5,.5ZM246.98,7.66h0c-.28,0-.5-.22-.5-.5v-1.99c0-2.4-.39-3.39-1.5-3.86-.25-.11-.38-.4-.27-.65,.11-.26,.4-.37,.65-.27,1.76,.73,2.12,2.42,2.12,4.72v2.05c0,.28-.23,.5-.5,.5ZM124.27,1.55c-.09,0-.18-.02-.26-.07-.09,.05-.2,.08-.31,.07-.55-.05-1.11-.12-1.66-.2-1.13-.14-2.31-.29-3.44-.29h-1.82c-.28,0-.5-.23-.5-.5,0-.28,.22-.5,.5-.5h1.82c1.2,0,2.4,.16,3.57,.3,.54,.07,1.09,.14,1.63,.19,.08,0,.15,.03,.21,.07,.01,0,.02-.01,.04-.02,.09-.05,.19-.11,.28-.17,.28-.18,.59-.38,.97-.38h.92c.28,0,.5,.22,.5,.5s-.22,.5-.5,.5h-.92c-.09,0-.29,.13-.43,.22-.12,.08-.25,.16-.38,.22-.07,.04-.15,.05-.22,.05Zm8.95-.5c-.28,0-.5-.22-.5-.5s.22-.5,.5-.5h7c.28,0,.5,.22,.5,.5s-.22,.5-.5,.5h-7Zm-23.44,0h-7c-.28,0-.5-.23-.5-.5s.22-.5,.5-.5h7c.28,0,.5,.23,.5,.5s-.22,.5-.5,.5Zm37.44,0c-.28,0-.5-.22-.5-.5s.22-.5,.5-.5h7c.28,0,.5,.22,.5,.5s-.22,.5-.5,.5h-7Zm14,0c-.28,0-.5-.22-.5-.5s.22-.5,.5-.5h7c.28,0,.5,.22,.5,.5s-.22,.5-.5,.5h-7Zm14,0c-.28,0-.5-.22-.5-.5s.22-.5,.5-.5h7c.28,0,.5,.22,.5,.5s-.22,.5-.5,.5h-7Zm-79.44,0h-7c-.28,0-.5-.23-.5-.5s.22-.5,.5-.5h7c.28,0,.5,.23,.5,.5s-.22,.5-.5,.5Zm-91,0c-.27,0-.5-.22-.5-.49,0-.28,.22-.5,.49-.51,.45,0,.94,0,1.49,0h5.52c.28,0,.5,.22,.5,.5s-.22,.5-.5,.5H6.27c-.54,0-1.03,0-1.48,0h0Zm184.44,0c-.28,0-.5-.22-.5-.5s.22-.5,.5-.5h7c.28,0,.5,.22,.5,.5s-.22,.5-.5,.5h-7Zm-107.44,0h-7c-.28,0-.5-.23-.5-.5s.22-.5,.5-.5h7c.28,0,.5,.23,.5,.5s-.22,.5-.5,.5Zm-14,0h-7c-.28,0-.5-.22-.5-.5s.22-.5,.5-.5h7c.28,0,.5,.22,.5,.5s-.22,.5-.5,.5ZM25.79,1.04h-7c-.28,0-.5-.22-.5-.5s.22-.5,.5-.5h7c.28,0,.5,.22,.5,.5s-.22,.5-.5,.5Zm177.44,0c-.28,0-.5-.22-.5-.5s.22-.5,.5-.5h7s0,0,0,0c.28,0,.5,.22,.5,.5s-.22,.5-.5,.5h-7Zm-149.44,0h-7c-.28,0-.5-.22-.5-.5s.22-.5,.5-.5h7c.28,0,.5,.22,.5,.5s-.22,.5-.5,.5Zm-14,0h-7c-.28,0-.5-.22-.5-.5s.22-.5,.5-.5h7c.28,0,.5,.22,.5,.5s-.22,.5-.5,.5Zm177.44-.01c-.28,0-.5-.22-.5-.5s.22-.5,.5-.5h7s0,0,0,0c.28,0,.5,.22,.5,.5,0,.28-.22,.5-.5,.5h-7s0,0,0,0Zm14-.02c-.28,0-.5-.22-.5-.5,0-.28,.22-.5,.5-.5h7s0-.01,0-.01c.28,0,.5,.22,.5,.5,0,.28-.22,.5-.5,.5h-7s0,.01,0,.01Z"/>
  <path class="cls-1" d="M123.76,242.55c-.28,0-.5-.22-.5-.5v-7c0-.28,.22-.5,.5-.5s.5,.22,.5,.5v7c0,.28-.22,.5-.5,.5Zm0-14c-.28,0-.5-.22-.5-.5v-4.11c-.38,.19-.75,.38-1.13,.56-.25,.12-.55,.01-.67-.24-.12-.25-.01-.55,.24-.67,.6-.28,1.21-.59,1.82-.92,.16-.08,.34-.08,.49,.01,.15,.09,.24,.25,.24,.43v4.94c0,.28-.22,.5-.5,.5Zm-9.5-1.87c-2.23,0-4.12-.71-5.81-2.15-.21-.18-.23-.5-.05-.71,.18-.21,.5-.23,.71-.05,1.49,1.29,3.18,1.91,5.15,1.91h0c.32,0,.64-.02,.96-.05,.28-.02,.52,.17,.55,.45,.03,.27-.17,.52-.45,.55-.36,.03-.71,.05-1.06,.05h0Zm-9.01-7.92c-.24,0-.46-.18-.49-.43-.06-.42-.09-.85-.09-1.28,0-1.95,.62-3.98,1.74-5.73,.15-.23,.46-.3,.69-.15,.23,.15,.3,.46,.15,.69-1.02,1.59-1.58,3.43-1.58,5.19,0,.39,.03,.77,.08,1.14,.04,.27-.15,.53-.42,.57-.02,0-.05,0-.07,0Zm14.08-9.8s-.1,0-.14-.02c-2.45-.74-4.77-.96-6.68-.65-.28,.05-.53-.14-.57-.41-.04-.27,.14-.53,.41-.57,2.07-.34,4.54-.1,7.13,.68,.26,.08,.41,.36,.33,.62-.07,.22-.26,.36-.48,.36Zm4.43-.39c-.28,0-.5-.22-.5-.5v-7c0-.28,.22-.5,.5-.5s.5,.22,.5,.5v7c0,.28-.22,.5-.5,.5Zm0-14c-.28,0-.5-.22-.5-.5v-7c0-.28,.22-.5,.5-.5s.5,.22,.5,.5v7c0,.28-.22,.5-.5,.5Z"/>
  <path class="cls-1" d="M123.76,61.85c-.28,0-.5-.22-.5-.5v-7c0-.28,.22-.5,.5-.5s.5,.22,.5,.5v7c0,.28-.22,.5-.5,.5Zm0-14c-.28,0-.5-.22-.5-.5v-7c0-.28,.22-.5,.5-.5s.5,.22,.5,.5v7c0,.28-.22,.5-.5,.5Zm9.75-6.4c-1.58,0-3.21-.43-4.84-1.27-.22-.11-.45-.21-.68-.31-.26-.1-.38-.39-.28-.65,.1-.26,.4-.38,.65-.28,.27,.11,.52,.22,.77,.35,1.95,1,3.9,1.36,5.68,1.04,.27-.06,.53,.13,.58,.41,.05,.27-.13,.53-.41,.58-.48,.08-.97,.13-1.47,.13Zm7.13-3.83c-.11,0-.21-.03-.3-.1-.22-.17-.26-.48-.09-.7,1.13-1.48,1.73-3.15,1.73-4.82,0-.45-.04-.9-.13-1.35-.05-.27,.13-.53,.4-.58,.27-.05,.53,.13,.58,.4,.1,.51,.15,1.03,.15,1.54,0,1.9-.67,3.78-1.94,5.43-.1,.13-.25,.2-.4,.2Zm-15.96-12.43c-.18,0-.35-.1-.44-.26-.8-1.46-1.16-3.09-1.16-5.29,0-.21,0-.42,0-.62,0-.28,.24-.49,.51-.49,.28,0,.49,.24,.49,.51,0,.2,0,.4,0,.6,0,1.84,.27,3.24,.86,4.46,.24-.07,.48-.14,.71-.21,.27-.08,.54,.07,.63,.33,.08,.26-.07,.54-.33,.63-.37,.12-.75,.23-1.14,.33-.04,.01-.09,.02-.13,.02Zm14.28-.14c-.12,0-.24-.04-.33-.12-1.32-1.16-2.92-1.86-4.63-2.04-.47-.05-.95-.04-1.44,.02-.28,.03-.52-.17-.55-.44s.17-.52,.44-.55c.56-.06,1.1-.07,1.65-.02,1.92,.19,3.72,.98,5.19,2.28,.21,.18,.23,.5,.04,.71-.1,.11-.24,.17-.38,.17Zm-15.19-12.51c-.27,0-.49-.21-.5-.48-.05-1.06-.07-2.23-.07-3.56,0-1.16,.02-2.31,.03-3.47,0-.28,.19-.49,.51-.49,.28,0,.5,.23,.49,.51-.02,1.15-.03,2.3-.03,3.45,0,1.32,.02,2.47,.07,3.52,.01,.28-.2,.51-.48,.52,0,0-.02,0-.02,0Z"/>
  <path class="cls-1" d="M11.07,124.72H4.07c-.28,0-.5-.23-.5-.5,0-.28,.22-.5,.5-.5h7c.28,0,.5,.23,.5,.5s-.22,.5-.5,.5Zm49.82,0h-7c-.28,0-.5-.22-.5-.5s.22-.5,.5-.5h7c.28,0,.5,.22,.5,.5s-.22,.5-.5,.5Zm-14,0h-7c-.28,0-.5-.22-.5-.5s.22-.5,.5-.5h7c.28,0,.5,.22,.5,.5s-.22,.5-.5,.5Zm-28.82-.02c-.27,0-.5-.22-.5-.5,0-.28,.22-.5,.5-.5,1.56-.01,3.12-.03,4.68-.05,.14-.03,.49-.47,.67-.71,.18-.22,.35-.45,.53-.62l.26,.26,.04-.03,.46-.19-.46,.19,.49-.13c.08,.19,.06,.46-.08,.6-.15,.15-.3,.34-.45,.53-.42,.53-.85,1.08-1.45,1.09-1.56,.02-3.12,.04-4.69,.05h0Zm21.21-4.21c-.06,0-.11,0-.17-.03-.26-.09-.39-.38-.3-.64,.73-2.02,1.08-3.73,1.08-5.24,0-.47-.03-.93-.1-1.37-.04-.27,.14-.53,.42-.57,.28-.04,.53,.14,.57,.42,.08,.49,.12,1,.12,1.53,0,1.62-.37,3.45-1.14,5.57-.07,.2-.27,.33-.47,.33Zm-16.86-4.17c-.26,0-.48-.2-.5-.46-.03-.34-.04-.67-.04-.99,0-2.27,.65-4.21,2-5.93,.17-.22,.48-.25,.7-.08,.22,.17,.25,.49,.08,.7-1.2,1.53-1.79,3.27-1.79,5.31,0,.3,.01,.6,.04,.91,.02,.28-.18,.52-.46,.54-.01,0-.03,0-.04,0Zm13.98-8.64s-.07-.06-.08-.06c-1.15-.95-2.88-1.5-4.76-1.5-.47,0-.93,.03-1.39,.1-.28,.03-.53-.15-.57-.42-.04-.27,.15-.53,.42-.57,.5-.07,1.02-.11,1.53-.11,2.11,0,4.08,.63,5.41,1.74l-.25,.44-.32,.38Z"/>
  <path class="cls-1" d="M216.3,143.43c-1.01,0-2.05-.2-3.08-.59-.26-.1-.39-.39-.29-.65,.1-.26,.39-.38,.65-.29,2.19,.83,4.35,.67,6.3-.48,.24-.14,.54-.06,.68,.18,.14,.24,.06,.54-.18,.69-1.29,.76-2.66,1.15-4.08,1.15Zm-8.25-4.87c-.18,0-.35-.09-.44-.26-.64-1.16-.95-2.43-.95-3.89,0-.99,.14-2.06,.44-3.28,.06-.27,.33-.43,.6-.37,.27,.06,.43,.33,.37,.6-.27,1.14-.41,2.14-.41,3.05,0,1.29,.27,2.4,.83,3.41,.13,.24,.05,.55-.2,.68-.08,.04-.16,.06-.24,.06Zm16.64-1.38c-.06,0-.13-.01-.19-.04-.26-.1-.38-.4-.27-.65,.33-.82,.5-1.65,.5-2.55,0-1.15-.27-2.43-.82-3.9-.1-.26,.03-.55,.29-.64,.26-.1,.55,.03,.64,.29,.6,1.59,.89,2.98,.89,4.25,0,1.03-.19,1.99-.57,2.93-.08,.19-.27,.31-.46,.31Zm-14.86-12.06c-.06,0-.12,0-.17-.03-.17-.06-.28-.21-.32-.37h-5.93c-.28,0-.5-.22-.5-.5s.22-.5,.5-.5h6.57c.16,0,.32,.08,.41,.21,.09,.13,.12,.31,.06,.46l-.15,.4c-.07,.2-.27,.33-.47,.33Zm15.06-.31c-.27,0-.49-.22-.5-.49,0-.28,.21-.5,.49-.51,2.34-.05,4.67-.07,7.01-.09h0c.27,0,.5,.22,.5,.5,0,.28-.22,.5-.5,.5-2.33,.01-4.66,.04-6.99,.09h-.01Zm21-.09h-7c-.28,0-.5-.23-.5-.51,0-.28,.22-.5,.5-.5h7c.28,0,.5,.23,.5,.51s-.22,.5-.5,.5Zm-49.48,0h-7c-.28,0-.5-.22-.5-.5s.22-.5,.5-.5h7c.28,0,.5,.22,.5,.5s-.22,.5-.5,.5Z"/>
</svg>