<svg width="57" height="57" viewBox="0 0 57 57" fill="none" xmlns="http://www.w3.org/2000/svg">
<path d="M48.6875 26.125H45.125V16.625C45.125 15.3652 44.6246 14.157 43.7338 13.2662C42.843 12.3754 41.6348 11.875 40.375 11.875H30.875V8.3125C30.875 6.73778 30.2494 5.22755 29.1359 4.11405C28.0224 3.00056 26.5122 2.375 24.9375 2.375C23.3628 2.375 21.8526 3.00056 20.7391 4.11405C19.6256 5.22755 19 6.73778 19 8.3125V11.875H9.5C8.24022 11.875 7.03204 12.3754 6.14124 13.2662C5.25044 14.157 4.75 15.3652 4.75 16.625V25.65H8.3125C11.875 25.65 14.725 28.5 14.725 32.0625C14.725 35.625 11.875 38.475 8.3125 38.475H4.75V47.5C4.75 48.7598 5.25044 49.968 6.14124 50.8588C7.03204 51.7496 8.24022 52.25 9.5 52.25H18.525V48.6875C18.525 45.125 21.375 42.275 24.9375 42.275C28.5 42.275 31.35 45.125 31.35 48.6875V52.25H40.375C41.6348 52.25 42.843 51.7496 43.7338 50.8588C44.6246 49.968 45.125 48.7598 45.125 47.5V38H48.6875C50.2622 38 51.7724 37.3744 52.8859 36.2609C53.9994 35.1474 54.625 33.6372 54.625 32.0625C54.625 30.4878 53.9994 28.9776 52.8859 27.8641C51.7724 26.7506 50.2622 26.125 48.6875 26.125Z" fill="black"/>
</svg>
